<?xml version="1.0" encoding="UTF-8"?><svg version="1.1" viewBox="0 0 24 24" xmlns="http://www.w3.org/2000/svg" xmlns:xlink="http://www.w3.org/1999/xlink"><!--Generated by IJSVG (https://github.com/iconjar/IJSVG)--><path d="M20.49,3.51l-9.98275e-08,-9.94815e-08c-4.69442,-4.67815 -12.2924,-4.66496 -16.9705,0.029463c-4.67815,4.69442 -4.66496,12.2924 0.029463,16.9705c4.6829,4.66667 12.2582,4.66667 16.9411,-1.98963e-07l-1.99655e-07,1.98963e-07c4.69442,-4.67815 4.70761,-12.2761 0.029463,-16.9705c-0.00980385,-0.00983795 -0.0196248,-0.0196589 -0.0294627,-0.0294627Zm-2.73,5.14l-6.61,7.71l-4.75,-3.56l-6.60367e-08,-4.95276e-08c-0.441828,-0.331371 -0.531371,-0.958172 -0.2,-1.4c0.331371,-0.441828 0.958172,-0.531371 1.4,-0.2l3.25,2.44l5.39,-6.29l-3.71146e-08,4.33955e-08c0.358985,-0.419736 0.990264,-0.468985 1.41,-0.11c0.419736,0.358985 0.468985,0.990264 0.11,1.41Z" fill="#6b46c1"></path></svg>